<?xml version="1.0" standalone="no"?><!DOCTYPE svg PUBLIC "-//W3C//DTD SVG 1.1//EN" "http://www.w3.org/Graphics/SVG/1.1/DTD/svg11.dtd"><svg t="1730629621383" class="icon" viewBox="0 0 1024 1024" version="1.1" xmlns="http://www.w3.org/2000/svg" p-id="16200" xmlns:xlink="http://www.w3.org/1999/xlink" width="200" height="200"><path d="M512 0C287.001248 0 102.911361 184.089888 102.911361 409.088639s322.157303 572.724095 322.157303 572.724095c51.13608 56.249688 127.8402 56.249688 178.97628 0 0 0 322.157303-342.611735 322.157303-572.724095 0-107.385768-40.908864-214.771536-117.612984-291.475655C721.657928 40.908864 619.385768 0 512 0z m0 582.951311c-76.70412 0-143.181024-46.022472-173.862672-117.612984-30.681648-71.590512-15.340824-153.40824 40.908864-204.54432 56.249688-56.249688 138.067416-71.590512 204.54432-40.908863 71.590512 30.681648 117.612984 97.158552 117.612984 173.862671 0 107.385768-86.931336 189.203496-189.203496 189.203496z" p-id="16201" fill="#ffffff"></path></svg>