<svg width="24" height="24" viewBox="0 0 24 24" fill="none" xmlns="http://www.w3.org/2000/svg">
<g clip-path="url(#clip0_411_4924)">
<path d="M8.35206 4C8.7076 4 9.03514 4.1928 9.20767 4.50363L10.4048 6.65994C10.5615 6.94227 10.5688 7.28376 10.4244 7.5726L9.27124 9.87903C9.27124 9.87903 9.60544 11.5972 11.0041 12.9959C12.4027 14.3946 14.1152 14.723 14.1152 14.723L16.4213 13.57C16.7103 13.4254 17.052 13.4329 17.3345 13.5899L19.4969 14.7922C19.8074 14.9648 20 15.2922 20 15.6475V18.13C20 19.3942 18.8257 20.3074 17.6278 19.9031C15.1676 19.073 11.3487 17.4924 8.92813 15.0719C6.50755 12.6513 4.92697 8.83239 4.09683 6.37217C3.69265 5.17429 4.60575 4 5.86996 4H8.35206Z" fill="#FF2442"/>
</g>
<defs>
<clipPath id="clip0_411_4924">
<rect width="24" height="24" fill="white"/>
</clipPath>
</defs>
</svg>
