<svg width="219" height="64" viewBox="0 0 219 64" fill="none" xmlns="http://www.w3.org/2000/svg">
<circle cx="32" cy="32" r="32" fill="#9A9A9A"/>
<path fill-rule="evenodd" clip-rule="evenodd" d="M63.1242 24.5333H0.875732C4.23914 10.4617 16.8978 0 32 0C47.1021 0 59.7608 10.4617 63.1242 24.5333Z" fill="#D9D9D9"/>
<path fill-rule="evenodd" clip-rule="evenodd" d="M5.81396 50.3976L32.2116 24L58.3596 50.1481C52.5876 58.5158 42.9342 64 31.9998 64C21.1746 64 11.6048 58.6247 5.81396 50.3976Z" fill="#FF0909"/>
<path d="M98.85 14.125V17.52H82.295V14.125H98.85ZM77.045 7.79H104.065V33.2C104.065 34.5067 103.762 35.4633 103.155 36.07C102.572 36.7 101.475 37.0967 99.865 37.26C98.4883 37.4 97.1933 37.4583 95.98 37.435L95.28 33.62H96.505C96.7383 33.62 97.0067 33.6317 97.31 33.655C97.6133 33.655 97.94 33.6433 98.29 33.62C99.06 33.6667 99.5617 33.5967 99.795 33.41C100.028 33.2 100.145 32.745 100.145 32.045V11.43H80.825V37.33H77.045V7.79ZM83.555 19.97H97.45V32.08H83.555V19.97ZM93.81 28.65V23.33H87.195V28.65H93.81ZM112.64 34.04C114.927 32.4767 116.91 30.785 118.59 28.965C120.27 27.1217 121.6 25.255 122.58 23.365C124.424 19.7017 125.404 15.175 125.52 9.785L125.555 6.845H129.685V8.175C129.685 9.66833 129.674 10.7183 129.65 11.325L129.58 12.865C130.024 16.855 131.214 20.4833 133.15 23.75C135.53 27.7633 138.785 31.2283 142.915 34.145L140.045 37.89C135.239 33.8067 131.727 29.7 129.51 25.57C128.904 24.4733 128.332 23.2017 127.795 21.755C127.305 23.1317 126.769 24.3917 126.185 25.535C124.039 29.7817 120.515 33.7833 115.615 37.54L112.64 34.04ZM156.076 9.085C156.029 8.99166 155.994 8.89833 155.971 8.805C155.947 8.68833 155.924 8.58333 155.901 8.49L155.691 7.65L155.376 6.46L159.156 6.04C159.412 6.76333 159.646 7.51 159.856 8.28C159.949 8.65333 160.007 8.92167 160.031 9.085H165.316V12.445H161.466L163.671 13.145C163.507 13.6583 163.169 14.5217 162.656 15.735L162.236 16.575H165.701V20.04H159.926V22.595H165.456V26.2H159.926V28.265L162.306 26.55C162.656 26.97 163.204 27.6817 163.951 28.685C164.091 28.8717 164.277 29.1517 164.511 29.525L165.281 30.715C165.421 30.3417 165.549 29.8633 165.666 29.28C166.156 27.25 166.401 24.0767 166.401 19.76V9.19C168.431 8.98 170.484 8.665 172.561 8.245C174.497 7.84833 176.282 7.34666 177.916 6.74L179.176 10.45C177.892 10.8933 176.446 11.325 174.836 11.745C173.109 12.1417 171.534 12.4217 170.111 12.585V17.1H179.841V20.775H176.831V37.05H173.086V20.775H170.111C170.111 24.9517 169.831 28.195 169.271 30.505C168.781 32.885 167.742 35.3583 166.156 37.925L162.551 36.035C163.694 34.4017 164.546 32.815 165.106 31.275L162.761 33.095C162.177 32.045 161.699 31.24 161.326 30.68C160.812 29.8633 160.346 29.175 159.926 28.615V33.445C159.926 34.635 159.727 35.4867 159.331 36C158.934 36.5367 158.176 36.875 157.056 37.015C156.239 37.1083 155.294 37.155 154.221 37.155L153.486 33.445C154.116 33.515 154.746 33.55 155.376 33.55C155.702 33.55 155.924 33.5267 156.041 33.48C156.157 33.41 156.239 33.2817 156.286 33.095C156.332 32.885 156.356 32.5233 156.356 32.01V26.2H150.301V22.595H156.356V20.04H149.916V16.575H153.801L153.241 15.385C152.774 14.405 152.412 13.7167 152.156 13.32L154.256 12.445H150.791V9.085H156.076ZM148.866 33.76C149.589 32.7567 150.277 31.6367 150.931 30.4C151.584 29.14 152.144 27.8683 152.611 26.585L155.621 27.88C154.361 31.0533 153.066 33.585 151.736 35.475L148.866 33.76ZM155.201 12.445C155.434 12.8183 155.761 13.425 156.181 14.265C156.507 14.9183 156.776 15.49 156.986 15.98L155.866 16.575H158.456L159.261 14.825C159.447 14.405 159.774 13.6117 160.241 12.445H155.201ZM195.836 6.46V12.025H200.001V15.875H195.836V16.61C196.326 17.0767 197.084 17.87 198.111 18.99L198.671 19.585C199.371 20.355 200.211 21.3817 201.191 22.665L198.391 25.22C197.994 24.5667 197.376 23.7267 196.536 22.7L195.836 21.79V37.295H191.951V24.065L191.916 24.135C191.029 26.1417 190.061 28.0667 189.011 29.91L185.861 27.67C187.144 25.7333 188.381 23.5167 189.571 21.02C190.411 19.1067 191.087 17.3917 191.601 15.875H187.611V12.025H191.951V6.46H195.836ZM196.501 30.12C201.471 26.0367 205.262 21.37 207.876 16.12H200.981V12.2H209.416V6.46H213.441V12.2H216.976V16.12H213.441V32.5C213.441 33.55 213.336 34.3667 213.126 34.95C212.916 35.5333 212.531 35.965 211.971 36.245C211.411 36.5483 210.594 36.77 209.521 36.91C208.704 37.0267 207.572 37.085 206.126 37.085H204.971L204.201 32.955C205.134 33.0483 206.079 33.095 207.036 33.095C207.806 33.095 208.342 33.0483 208.646 32.955C208.972 32.8617 209.182 32.6983 209.276 32.465C209.369 32.2083 209.416 31.7767 209.416 31.17V21.02C206.662 25.8033 203.349 29.84 199.476 33.13L196.501 30.12Z" fill="#242927"/>
<path d="M77.15 59.182C76.338 59.182 75.6613 58.9767 75.12 58.566C74.5787 58.1553 74.224 57.572 74.056 56.816L75.456 56.41C75.5307 56.83 75.7033 57.1847 75.974 57.474C76.2447 57.7633 76.6367 57.908 77.15 57.908C77.6913 57.908 78.1067 57.7353 78.396 57.39C78.6947 57.0353 78.844 56.4847 78.844 55.738V48.248H80.23V55.794C80.23 56.9047 79.95 57.7493 79.39 58.328C78.8393 58.8973 78.0927 59.182 77.15 59.182ZM86.7944 59.224C85.5157 59.224 84.4984 58.8507 83.7424 58.104C82.9864 57.3573 82.6084 56.3027 82.6084 54.94V48.248H84.0084V54.856C84.0084 55.892 84.2417 56.662 84.7084 57.166C85.1844 57.6607 85.8797 57.908 86.7944 57.908C87.6997 57.908 88.3904 57.6607 88.8664 57.166C89.3424 56.662 89.5804 55.892 89.5804 54.856V48.248H90.9664V54.94C90.9664 56.3027 90.5884 57.3573 89.8324 58.104C89.0764 58.8507 88.0637 59.224 86.7944 59.224ZM93.3852 48.248H95.6672L100.791 57.838V48.248H102.177V59H99.9372L94.7852 49.368V59H93.3852V48.248ZM112.425 49.494H108.869V59H107.483V49.494H103.927V48.248H112.425V49.494ZM118.038 59.224C117.067 59.224 116.208 59 115.462 58.552C114.724 58.0947 114.15 57.4413 113.74 56.592C113.329 55.7427 113.124 54.7533 113.124 53.624C113.124 52.4853 113.329 51.496 113.74 50.656C114.15 49.8067 114.724 49.158 115.462 48.71C116.208 48.2527 117.067 48.024 118.038 48.024C119.008 48.024 119.862 48.2527 120.6 48.71C121.337 49.158 121.911 49.8067 122.322 50.656C122.742 51.496 122.952 52.4853 122.952 53.624C122.952 54.7533 122.742 55.7427 122.322 56.592C121.911 57.4413 121.337 58.0947 120.6 58.552C119.862 59 119.008 59.224 118.038 59.224ZM114.538 53.624C114.538 54.968 114.841 56.018 115.448 56.774C116.064 57.53 116.927 57.908 118.038 57.908C119.139 57.908 119.998 57.53 120.614 56.774C121.23 56.018 121.538 54.968 121.538 53.624C121.538 52.2707 121.23 51.2207 120.614 50.474C120.007 49.718 119.148 49.34 118.038 49.34C116.927 49.34 116.064 49.718 115.448 50.474C114.841 51.2207 114.538 52.2707 114.538 53.624ZM128.929 48.248H131.239L134.375 57.768L137.525 48.248H139.793V59H138.435V49.494L135.299 59H133.437L130.287 49.494V59H128.929V48.248ZM145.343 48.248H147.317L151.223 59H149.739L148.717 56.102H143.943L142.907 59H141.437L145.343 48.248ZM148.269 54.856L146.323 49.368L144.377 54.856H148.269ZM159.305 49.494H155.749V59H154.363V49.494H150.807V48.248H159.305V49.494ZM168.375 49.494H162.453V52.728H167.969V53.974H162.453V57.74H168.515V59H161.053V48.248H168.375V49.494ZM175.247 48.248C176.357 48.248 177.221 48.514 177.837 49.046C178.453 49.578 178.761 50.3013 178.761 51.216C178.761 51.86 178.56 52.4293 178.159 52.924C177.767 53.4093 177.263 53.736 176.647 53.904C177.048 54.0347 177.356 54.2353 177.571 54.506C177.795 54.7673 177.958 55.0893 178.061 55.472C178.173 55.8547 178.289 56.4053 178.411 57.124L178.719 59H177.291L177.067 57.278C176.964 56.5687 176.847 56.0133 176.717 55.612C176.586 55.2107 176.376 54.9073 176.087 54.702C175.797 54.4967 175.387 54.394 174.855 54.394H171.985V59H170.585V48.248H175.247ZM175.247 53.148C175.965 53.148 176.502 52.9847 176.857 52.658C177.211 52.3313 177.389 51.8787 177.389 51.3C177.389 50.096 176.67 49.494 175.233 49.494H171.985V53.148H175.247ZM181.019 59V48.248H182.419V59H181.019ZM187.958 48.248H189.932L193.838 59H192.354L191.332 56.102H186.558L185.522 59H184.052L187.958 48.248ZM190.884 54.856L188.938 49.368L186.992 54.856H190.884ZM196.889 57.74H202.363V59H195.489V48.248H196.889V57.74ZM207.863 59.224C206.584 59.224 205.543 58.9393 204.741 58.37C203.938 57.8007 203.42 57.0353 203.187 56.074L204.629 55.668C204.778 56.368 205.114 56.9233 205.637 57.334C206.169 57.7353 206.911 57.936 207.863 57.936C208.703 57.936 209.351 57.7587 209.809 57.404C210.266 57.0493 210.495 56.5827 210.495 56.004C210.495 55.4627 210.308 55.0707 209.935 54.828C209.571 54.576 208.955 54.3893 208.087 54.268L207.009 54.114C205.767 53.9367 204.876 53.6007 204.335 53.106C203.803 52.602 203.537 51.9487 203.537 51.146C203.537 50.5673 203.7 50.0447 204.027 49.578C204.353 49.1113 204.815 48.7427 205.413 48.472C206.019 48.192 206.715 48.052 207.499 48.052C208.563 48.052 209.463 48.2993 210.201 48.794C210.938 49.2887 211.447 49.9653 211.727 50.824L210.397 51.202C210.182 50.6047 209.827 50.1427 209.333 49.816C208.847 49.4893 208.208 49.326 207.415 49.326C206.575 49.326 205.949 49.5033 205.539 49.858C205.128 50.2033 204.923 50.614 204.923 51.09C204.923 51.4073 204.988 51.6733 205.119 51.888C205.249 52.1027 205.483 52.2847 205.819 52.434C206.155 52.5833 206.631 52.7047 207.247 52.798L208.367 52.966C209.533 53.1433 210.411 53.4747 210.999 53.96C211.587 54.4453 211.881 55.1127 211.881 55.962C211.881 56.5967 211.717 57.1613 211.391 57.656C211.064 58.1507 210.597 58.538 209.991 58.818C209.384 59.0887 208.675 59.224 207.863 59.224Z" fill="#9A9A9A"/>
</svg>
