<svg width="219" height="64" viewBox="0 0 219 64" fill="none" xmlns="http://www.w3.org/2000/svg">
<circle cx="32" cy="32" r="32" fill="#9A9A9A"/>
<path fill-rule="evenodd" clip-rule="evenodd" d="M63.1244 24.5333H0.875977C4.23938 10.4617 16.8981 0 32.0002 0C47.1023 0 59.761 10.4617 63.1244 24.5333Z" fill="#D9D9D9"/>
<path fill-rule="evenodd" clip-rule="evenodd" d="M5.81396 50.3976L32.2116 24L58.3596 50.1481C52.5876 58.5158 42.9342 64 31.9998 64C21.1746 64 11.6048 58.6247 5.81396 50.3976Z" fill="#FF0909"/>
<path d="M98.85 14.125V17.52H82.295V14.125H98.85ZM77.045 7.79H104.065V33.2C104.065 34.5067 103.762 35.4633 103.155 36.07C102.572 36.7 101.475 37.0967 99.865 37.26C98.4883 37.4 97.1933 37.4583 95.98 37.435L95.28 33.62H96.505C96.7383 33.62 97.0067 33.6317 97.31 33.655C97.6133 33.655 97.94 33.6433 98.29 33.62C99.06 33.6667 99.5617 33.5967 99.795 33.41C100.028 33.2 100.145 32.745 100.145 32.045V11.43H80.825V37.33H77.045V7.79ZM83.555 19.97H97.45V32.08H83.555V19.97ZM93.81 28.65V23.33H87.195V28.65H93.81ZM112.64 34.04C114.927 32.4767 116.91 30.785 118.59 28.965C120.27 27.1217 121.6 25.255 122.58 23.365C124.424 19.7017 125.404 15.175 125.52 9.785L125.555 6.845H129.685V8.175C129.685 9.66833 129.674 10.7183 129.65 11.325L129.58 12.865C130.024 16.855 131.214 20.4833 133.15 23.75C135.53 27.7633 138.785 31.2283 142.915 34.145L140.045 37.89C135.239 33.8067 131.727 29.7 129.51 25.57C128.904 24.4733 128.332 23.2017 127.795 21.755C127.305 23.1317 126.769 24.3917 126.185 25.535C124.039 29.7817 120.515 33.7833 115.615 37.54L112.64 34.04ZM156.076 9.085C156.029 8.99166 155.994 8.89833 155.971 8.805C155.947 8.68833 155.924 8.58333 155.901 8.49L155.691 7.65L155.376 6.46L159.156 6.04C159.412 6.76333 159.646 7.51 159.856 8.28C159.949 8.65333 160.007 8.92167 160.031 9.085H165.316V12.445H161.466L163.671 13.145C163.507 13.6583 163.169 14.5217 162.656 15.735L162.236 16.575H165.701V20.04H159.926V22.595H165.456V26.2H159.926V28.265L162.306 26.55C162.656 26.97 163.204 27.6817 163.951 28.685C164.091 28.8717 164.277 29.1517 164.511 29.525L165.281 30.715C165.421 30.3417 165.549 29.8633 165.666 29.28C166.156 27.25 166.401 24.0767 166.401 19.76V9.19C168.431 8.98 170.484 8.665 172.561 8.245C174.497 7.84833 176.282 7.34666 177.916 6.74L179.176 10.45C177.892 10.8933 176.446 11.325 174.836 11.745C173.109 12.1417 171.534 12.4217 170.111 12.585V17.1H179.841V20.775H176.831V37.05H173.086V20.775H170.111C170.111 24.9517 169.831 28.195 169.271 30.505C168.781 32.885 167.742 35.3583 166.156 37.925L162.551 36.035C163.694 34.4017 164.546 32.815 165.106 31.275L162.761 33.095C162.177 32.045 161.699 31.24 161.326 30.68C160.812 29.8633 160.346 29.175 159.926 28.615V33.445C159.926 34.635 159.727 35.4867 159.331 36C158.934 36.5367 158.176 36.875 157.056 37.015C156.239 37.1083 155.294 37.155 154.221 37.155L153.486 33.445C154.116 33.515 154.746 33.55 155.376 33.55C155.702 33.55 155.924 33.5267 156.041 33.48C156.157 33.41 156.239 33.2817 156.286 33.095C156.332 32.885 156.356 32.5233 156.356 32.01V26.2H150.301V22.595H156.356V20.04H149.916V16.575H153.801L153.241 15.385C152.774 14.405 152.412 13.7167 152.156 13.32L154.256 12.445H150.791V9.085H156.076ZM148.866 33.76C149.589 32.7567 150.277 31.6367 150.931 30.4C151.584 29.14 152.144 27.8683 152.611 26.585L155.621 27.88C154.361 31.0533 153.066 33.585 151.736 35.475L148.866 33.76ZM155.201 12.445C155.434 12.8183 155.761 13.425 156.181 14.265C156.507 14.9183 156.776 15.49 156.986 15.98L155.866 16.575H158.456L159.261 14.825C159.447 14.405 159.774 13.6117 160.241 12.445H155.201ZM195.836 6.46V12.025H200.001V15.875H195.836V16.61C196.326 17.0767 197.084 17.87 198.111 18.99L198.671 19.585C199.371 20.355 200.211 21.3817 201.191 22.665L198.391 25.22C197.994 24.5667 197.376 23.7267 196.536 22.7L195.836 21.79V37.295H191.951V24.065L191.916 24.135C191.029 26.1417 190.061 28.0667 189.011 29.91L185.861 27.67C187.144 25.7333 188.381 23.5167 189.571 21.02C190.411 19.1067 191.087 17.3917 191.601 15.875H187.611V12.025H191.951V6.46H195.836ZM196.501 30.12C201.471 26.0367 205.262 21.37 207.876 16.12H200.981V12.2H209.416V6.46H213.441V12.2H216.976V16.12H213.441V32.5C213.441 33.55 213.336 34.3667 213.126 34.95C212.916 35.5333 212.531 35.965 211.971 36.245C211.411 36.5483 210.594 36.77 209.521 36.91C208.704 37.0267 207.572 37.085 206.126 37.085H204.971L204.201 32.955C205.134 33.0483 206.079 33.095 207.036 33.095C207.806 33.095 208.342 33.0483 208.646 32.955C208.972 32.8617 209.182 32.6983 209.276 32.465C209.369 32.2083 209.416 31.7767 209.416 31.17V21.02C206.662 25.8033 203.349 29.84 199.476 33.13L196.501 30.12Z" fill="white"/>
<path d="M80.15 59.182C79.338 59.182 78.6613 58.9767 78.12 58.566C77.5787 58.1553 77.224 57.572 77.056 56.816L78.456 56.41C78.5307 56.83 78.7033 57.1847 78.974 57.474C79.2447 57.7633 79.6367 57.908 80.15 57.908C80.6913 57.908 81.1067 57.7353 81.396 57.39C81.6947 57.0353 81.844 56.4847 81.844 55.738V48.248H83.23V55.794C83.23 56.9047 82.95 57.7493 82.39 58.328C81.8393 58.8973 81.0927 59.182 80.15 59.182ZM89.7944 59.224C88.5157 59.224 87.4984 58.8507 86.7424 58.104C85.9864 57.3573 85.6084 56.3027 85.6084 54.94V48.248H87.0084V54.856C87.0084 55.892 87.2417 56.662 87.7084 57.166C88.1844 57.6607 88.8797 57.908 89.7944 57.908C90.6997 57.908 91.3904 57.6607 91.8664 57.166C92.3424 56.662 92.5804 55.892 92.5804 54.856V48.248H93.9664V54.94C93.9664 56.3027 93.5884 57.3573 92.8324 58.104C92.0764 58.8507 91.0637 59.224 89.7944 59.224ZM96.3852 48.248H98.6672L103.791 57.838V48.248H105.177V59H102.937L97.7852 49.368V59H96.3852V48.248ZM115.425 49.494H111.869V59H110.483V49.494H106.927V48.248H115.425V49.494ZM121.038 59.224C120.067 59.224 119.208 59 118.462 58.552C117.724 58.0947 117.15 57.4413 116.74 56.592C116.329 55.7427 116.124 54.7533 116.124 53.624C116.124 52.4853 116.329 51.496 116.74 50.656C117.15 49.8067 117.724 49.158 118.462 48.71C119.208 48.2527 120.067 48.024 121.038 48.024C122.008 48.024 122.862 48.2527 123.6 48.71C124.337 49.158 124.911 49.8067 125.322 50.656C125.742 51.496 125.952 52.4853 125.952 53.624C125.952 54.7533 125.742 55.7427 125.322 56.592C124.911 57.4413 124.337 58.0947 123.6 58.552C122.862 59 122.008 59.224 121.038 59.224ZM117.538 53.624C117.538 54.968 117.841 56.018 118.448 56.774C119.064 57.53 119.927 57.908 121.038 57.908C122.139 57.908 122.998 57.53 123.614 56.774C124.23 56.018 124.538 54.968 124.538 53.624C124.538 52.2707 124.23 51.2207 123.614 50.474C123.007 49.718 122.148 49.34 121.038 49.34C119.927 49.34 119.064 49.718 118.448 50.474C117.841 51.2207 117.538 52.2707 117.538 53.624ZM131.929 48.248H134.239L137.375 57.768L140.525 48.248H142.793V59H141.435V49.494L138.299 59H136.437L133.287 49.494V59H131.929V48.248ZM148.343 48.248H150.317L154.223 59H152.739L151.717 56.102H146.943L145.907 59H144.437L148.343 48.248ZM151.269 54.856L149.323 49.368L147.377 54.856H151.269ZM162.305 49.494H158.749V59H157.363V49.494H153.807V48.248H162.305V49.494ZM171.375 49.494H165.453V52.728H170.969V53.974H165.453V57.74H171.515V59H164.053V48.248H171.375V49.494ZM178.247 48.248C179.357 48.248 180.221 48.514 180.837 49.046C181.453 49.578 181.761 50.3013 181.761 51.216C181.761 51.86 181.56 52.4293 181.159 52.924C180.767 53.4093 180.263 53.736 179.647 53.904C180.048 54.0347 180.356 54.2353 180.571 54.506C180.795 54.7673 180.958 55.0893 181.061 55.472C181.173 55.8547 181.289 56.4053 181.411 57.124L181.719 59H180.291L180.067 57.278C179.964 56.5687 179.847 56.0133 179.717 55.612C179.586 55.2107 179.376 54.9073 179.087 54.702C178.797 54.4967 178.387 54.394 177.855 54.394H174.985V59H173.585V48.248H178.247ZM178.247 53.148C178.965 53.148 179.502 52.9847 179.857 52.658C180.211 52.3313 180.389 51.8787 180.389 51.3C180.389 50.096 179.67 49.494 178.233 49.494H174.985V53.148H178.247ZM184.019 59V48.248H185.419V59H184.019ZM190.958 48.248H192.932L196.838 59H195.354L194.332 56.102H189.558L188.522 59H187.052L190.958 48.248ZM193.884 54.856L191.938 49.368L189.992 54.856H193.884ZM199.889 57.74H205.363V59H198.489V48.248H199.889V57.74ZM210.863 59.224C209.584 59.224 208.543 58.9393 207.741 58.37C206.938 57.8007 206.42 57.0353 206.187 56.074L207.629 55.668C207.778 56.368 208.114 56.9233 208.637 57.334C209.169 57.7353 209.911 57.936 210.863 57.936C211.703 57.936 212.351 57.7587 212.809 57.404C213.266 57.0493 213.495 56.5827 213.495 56.004C213.495 55.4627 213.308 55.0707 212.935 54.828C212.571 54.576 211.955 54.3893 211.087 54.268L210.009 54.114C208.767 53.9367 207.876 53.6007 207.335 53.106C206.803 52.602 206.537 51.9487 206.537 51.146C206.537 50.5673 206.7 50.0447 207.027 49.578C207.353 49.1113 207.815 48.7427 208.413 48.472C209.019 48.192 209.715 48.052 210.499 48.052C211.563 48.052 212.463 48.2993 213.201 48.794C213.938 49.2887 214.447 49.9653 214.727 50.824L213.397 51.202C213.182 50.6047 212.827 50.1427 212.333 49.816C211.847 49.4893 211.208 49.326 210.415 49.326C209.575 49.326 208.949 49.5033 208.539 49.858C208.128 50.2033 207.923 50.614 207.923 51.09C207.923 51.4073 207.988 51.6733 208.119 51.888C208.249 52.1027 208.483 52.2847 208.819 52.434C209.155 52.5833 209.631 52.7047 210.247 52.798L211.367 52.966C212.533 53.1433 213.411 53.4747 213.999 53.96C214.587 54.4453 214.881 55.1127 214.881 55.962C214.881 56.5967 214.717 57.1613 214.391 57.656C214.064 58.1507 213.597 58.538 212.991 58.818C212.384 59.0887 211.675 59.224 210.863 59.224Z" fill="white"/>
</svg>
